<svg xmlns="http://www.w3.org/2000/svg" xmlns:xlink="http://www.w3.org/1999/xlink" width="15" height="15" viewBox="0 0 15 15"><defs><clipPath id="a"><rect width="15" height="15" fill="none"/></clipPath></defs><g clip-path="url(#a)"><path d="M9.194,7.5l5.444-5.4A1.251,1.251,0,0,0,15,1.21,1.16,1.16,0,0,0,14.637.4a1.242,1.242,0,0,0-1.694,0L7.5,5.806,2.1.363A1.251,1.251,0,0,0,1.209,0,1.16,1.16,0,0,0,.4.363,1.3,1.3,0,0,0,.08,1.21a1.042,1.042,0,0,0,.363.847L5.806,7.5.363,12.9A1.251,1.251,0,0,0,0,13.791a1.16,1.16,0,0,0,.363.807,1.3,1.3,0,0,0,.847.323,1.1,1.1,0,0,0,.847-.363L7.5,9.194l5.4,5.444a1.16,1.16,0,0,0,.847.363h.04a1.161,1.161,0,0,0,.807-.363,1.289,1.289,0,0,0,.04-1.694Z"/></g></svg>