<svg xmlns="http://www.w3.org/2000/svg" xmlns:xlink="http://www.w3.org/1999/xlink" width="21" height="23.265" viewBox="0 0 21 23.265"><defs><clipPath id="a"><rect width="21" height="23.265" transform="translate(0 0)" stroke="#f8cf1e" stroke-width="1"/></clipPath></defs><g transform="translate(0 0)"><g transform="translate(0 0)" clip-path="url(#a)"><path d="M20.105,1.695q.167-.2.273-.3c2.908-2.974,6.7-.762,6.7,2.693,0,2.592-2.248,4.541-6.745,7.132a.941.941,0,0,1-.939,0c-4.5-2.585-6.745-4.534-6.745-7.132,0-3.452,3.788-5.663,6.694-2.7q.109.111.281.313a.314.314,0,0,0,.442.035.364.364,0,0,0,.035-.035Z" transform="translate(-9.295 0.001)" fill-rule="evenodd"/><path d="M6.7,55.088H0v5.47A2.4,2.4,0,0,0,2.178,62.95l8.322.786V58.5a3.882,3.882,0,0,0-3.8-3.413" transform="translate(0 -40.471)" stroke="#f8cf1e" stroke-width="1"/><path d="M10.5,22.495l-8.322.786A2.4,2.4,0,0,0,0,25.673v5.47H6.7a3.882,3.882,0,0,0,3.8-3.413Z" transform="translate(0 -16.526)" stroke="#f8cf1e" stroke-width="1"/><path d="M50.073,55.088h-6.7a3.882,3.882,0,0,0-3.8,3.413v5.235L47.9,62.95a2.4,2.4,0,0,0,2.178-2.393Z" transform="translate(-29.073 -40.471)" stroke="#f8cf1e" stroke-width="1"/><path d="M47.9,23.281l-8.322-.786V27.73a3.882,3.882,0,0,0,3.8,3.413h6.7V25.674A2.4,2.4,0,0,0,47.9,23.281" transform="translate(-29.073 -16.526)" stroke="#f8cf1e" stroke-width="1"/></g></g></svg>