<svg xmlns="http://www.w3.org/2000/svg" xmlns:xlink="http://www.w3.org/1999/xlink" width="34" height="34" viewBox="0 0 34 34"><defs><clipPath id="a"><rect width="34" height="34" transform="translate(0)" fill="#fff"/></clipPath></defs><g transform="translate(0)"><g transform="translate(0)" clip-path="url(#a)"><path d="M17,0A17,17,0,1,0,34,17,17.015,17.015,0,0,0,17,0m.036,6.013a2.863,2.863,0,1,1-2.863,2.863,2.872,2.872,0,0,1,2.863-2.863M19.72,27.522H14.387a2.115,2.115,0,0,1-2.112-2.112A2.139,2.139,0,0,1,14.387,23.3h.573V17.787h-.573a2.139,2.139,0,0,1-2.112-2.112,2.115,2.115,0,0,1,2.112-2.112h2.684a2.093,2.093,0,0,1,2.112,2.112v7.659h.573a2.115,2.115,0,0,1,2.112,2.112,2.139,2.139,0,0,1-2.147,2.076Z" transform="translate(0)" fill="#fff"/></g></g></svg>